<svg xmlns="http://www.w3.org/2000/svg" width="41.628" height="43.363" viewBox="0 0 41.628 43.363"><defs><style>.a{fill:none;stroke:#000;stroke-width:2px;}</style></defs><g transform="translate(3950.885 -280.581)"><path class="a" d="M146.86,121.9l-3.424,11.041a4.6,4.6,0,0,1-4.378,3.261H117.442l-.046.009-2.4-14.3.037-.009Z" transform="translate(-4057.474 168.334)"/><path d="M63.74,54.06a3.8,3.8,0,1,1-3.8,3.8A3.8,3.8,0,0,1,63.74,54.06Zm-19.93,0a3.8,3.8,0,1,1-2.689,1.113A3.8,3.8,0,0,1,43.811,54.06Zm22.8-4.128H45.348a5.583,5.583,0,0,1-5.516-4.659L36.1,23.266a3.72,3.72,0,0,0-3.671-3.1H30.832a.932.932,0,0,1,0-1.863h1.593a5.566,5.566,0,0,1,5.507,4.659l3.736,22.017a3.72,3.72,0,0,0,3.671,3.1H66.6a.934.934,0,0,1,.932.932.919.919,0,0,1-.922.922Z" transform="translate(-3980.785 262.281)"/></g></svg>