<svg xmlns="http://www.w3.org/2000/svg" xmlns:xlink="http://www.w3.org/1999/xlink" width="55" height="55" viewBox="0 0 55 55"><defs><style>.a{fill:#fff;}.b{fill:#249fe6;}.c{filter:url(#a);}</style><filter id="a" x="0" y="0" width="55" height="55" filterUnits="userSpaceOnUse"><feOffset input="SourceAlpha"/><feGaussianBlur stdDeviation="1.5" result="b"/><feFlood flood-opacity="0.161"/><feComposite operator="in" in2="b"/><feComposite in="SourceGraphic"/></filter></defs><g transform="translate(-11.5 -591.5)"><g class="c" transform="matrix(1, 0, 0, 1, 11.5, 591.5)"><rect class="a" width="46" height="46" rx="23" transform="translate(4.5 4.5)"/></g><path class="b" d="M7.028,12.819a21.04,21.04,0,0,0,9.153,9.153l3.056-3.056a1.381,1.381,0,0,1,1.417-.333,15.843,15.843,0,0,0,4.958.792A1.393,1.393,0,0,1,27,20.764v4.847A1.393,1.393,0,0,1,25.611,27,23.609,23.609,0,0,1,2,3.389,1.393,1.393,0,0,1,3.389,2H8.25A1.393,1.393,0,0,1,9.639,3.389a15.778,15.778,0,0,0,.792,4.958,1.394,1.394,0,0,1-.347,1.417L7.028,12.819Z" transform="translate(23.24 605.76)"/></g></svg>