<svg xmlns="http://www.w3.org/2000/svg" width="45" height="29.032" viewBox="0 0 45 29.032"><path d="M49.4,35.016l-8.61-2.9L36.535,24.3a6.532,6.532,0,0,0-5.706-3.4H15.311a6.474,6.474,0,0,0-5.706,3.4L5.15,32.463v.05a.184.184,0,0,0-.05.15v.25h0V44.927a1,1,0,0,0,1,1h4.1a5.007,5.007,0,0,0,9.811,0H35.233a5.007,5.007,0,0,0,9.811,0H49.1a1,1,0,0,0,1-1v-8.96A.961.961,0,0,0,49.4,35.016ZM21.568,22.952h9.26A4.51,4.51,0,0,1,34.783,25.3l3.6,6.657H21.568ZM11.357,25.3a4.51,4.51,0,0,1,3.954-2.353h4.255v9.01H7.753Zm-1.2,18.671h-3.1v-2h4A4.852,4.852,0,0,0,10.156,43.976Zm4.905,4a3,3,0,1,1,3-3A3.012,3.012,0,0,1,15.061,47.98Zm25.028,0a3,3,0,1,1,3-3A3.012,3.012,0,0,1,40.089,47.98Zm8.009-4h-3.1a5.007,5.007,0,0,0-9.811,0H19.967a4.994,4.994,0,0,0-4.905-4H7.052V33.965H39.939l8.159,2.7Z" transform="translate(-5.1 -20.9)"/></svg>