<svg xmlns="http://www.w3.org/2000/svg" width="19.225" height="13.96" viewBox="0 0 19.225 13.96"><defs><style>.a{fill:#1c4144;}</style></defs><path class="a" d="M6.051,4.5H16.909A1.551,1.551,0,0,1,18.46,6.051v3.1H16.909v-3.1H6.051V16.909H16.909v-3.1H18.46v3.1a1.551,1.551,0,0,1-1.551,1.551H6.051A1.556,1.556,0,0,1,4.5,16.909V6.051A1.556,1.556,0,0,1,6.051,4.5Z" transform="translate(-4.5 -4.5)"/><path class="a" d="M16.749,17.162l1.094,1.094,3.878-3.878L17.842,10.5l-1.094,1.094,2,2.009h-7.5v1.551h7.5Z" transform="translate(-2.495 -7.397)"/></svg>