<?xml version="1.0" ?><!DOCTYPE svg  PUBLIC '-//W3C//DTD SVG 1.1//EN'  'http://www.w3.org/Graphics/SVG/1.1/DTD/svg11.dtd'><svg enable-background="new 0 0 841.89 595.28" height="595.28px" id="Layer_1" version="1.1" viewBox="0 0 841.89 595.28" width="841.89px" xml:space="preserve" xmlns="http://www.w3.org/2000/svg" xmlns:xlink="http://www.w3.org/1999/xlink"><g><path d="M715.769,296.719   c0,162.826-132.003,294.82-294.827,294.82c-162.824,0-294.817-131.994-294.817-294.82c0-162.829,131.994-294.827,294.817-294.827   C583.766,1.893,715.769,133.891,715.769,296.719z" fill="#FFFFFF" stroke="#C6C6C6" stroke-miterlimit="10" stroke-width="2"/><g><path clip-rule="evenodd" d="M371.761,242.039    l90.763,60.611l12.736-6.61L371.761,242.039z" fill="#010202" fill-rule="evenodd" id="The_Sharpness" opacity="0.12"/><g id="Lozenge"><g><path d="M569.179,236.235c0,0-2.961-20.849-12.03-30.028c-11.493-12.048-24.396-12.105-30.311-12.815      c-42.323-3.058-105.826-3.058-105.826-3.058h-0.132c0,0-63.502,0-105.835,3.058c-5.914,0.71-18.799,0.767-30.31,12.815      c-9.069,9.179-12.022,30.028-12.022,30.028s-3.023,24.48-3.023,48.956v22.953c0,24.484,3.023,48.96,3.023,48.96      s2.953,20.854,12.022,30.028c11.511,12.049,26.626,11.67,33.36,12.93c24.202,2.327,102.847,3.041,102.847,3.041      s63.573-0.097,105.896-3.155c5.914-0.705,18.817-0.767,30.311-12.815c9.069-9.175,12.03-30.028,12.03-30.028      s3.023-24.476,3.023-48.96v-22.953C572.202,260.715,569.179,236.235,569.179,236.235z M389.715,335.96l-0.018-85.001      l81.738,42.649L389.715,335.96z" fill="#C6C6C6"/></g></g></g></g></svg>