<svg xmlns="http://www.w3.org/2000/svg" width="42" height="42" viewBox="0 0 42 42"><defs><style>.a{fill:none;}.b{fill-rule:evenodd;}</style></defs><rect class="a" width="42" height="42"/><path class="b" d="M47.332,7.051V5.473a3.731,3.731,0,0,1,3.723-3.739h4.964a3.731,3.731,0,0,1,3.723,3.739V7.051h4.964a6.219,6.219,0,0,1,6.205,6.232v7.479A6.251,6.251,0,0,1,69.1,25.17a6.346,6.346,0,0,1-.665.578v4.986a6.219,6.219,0,0,1-6.205,6.232H44.849a6.22,6.22,0,0,1-6.205-6.232V25.748a6.236,6.236,0,0,1-2.482-4.986V13.284a6.22,6.22,0,0,1,6.205-6.232ZM58.275,26.995a3.775,3.775,0,0,1-3.546,2.493H52.346A3.773,3.773,0,0,1,48.8,26.995H41.126v3.739a3.731,3.731,0,0,0,3.723,3.739H62.224a3.731,3.731,0,0,0,3.723-3.739V26.995Zm-2.256-3.689V25.7a1.292,1.292,0,0,1-1.289,1.3H52.346a1.293,1.293,0,0,1-1.291-1.3V23.305a1.293,1.293,0,0,1,1.291-1.3H54.73A1.292,1.292,0,0,1,56.019,23.305ZM64.707,9.544H42.367a3.731,3.731,0,0,0-3.723,3.739v7.479A3.733,3.733,0,0,0,42.367,24.5h6.205v-1.2a3.781,3.781,0,0,1,3.773-3.789H54.73A3.781,3.781,0,0,1,58.5,23.305v1.2h6.205a3.733,3.733,0,0,0,3.723-3.739V13.284A3.731,3.731,0,0,0,64.707,9.544ZM57.26,7.051V5.473a1.244,1.244,0,0,0-1.241-1.246H51.055a1.244,1.244,0,0,0-1.241,1.246V7.051Z" transform="translate(-32.537 1.409)"/></svg>