<svg xmlns="http://www.w3.org/2000/svg" xmlns:xlink="http://www.w3.org/1999/xlink" width="55" height="55" viewBox="0 0 55 55"><defs><style>.a{fill:#fff;}.b{fill:#249fe6;stroke:#249fe6;}.c{filter:url(#a);}</style><filter id="a" x="0" y="0" width="55" height="55" filterUnits="userSpaceOnUse"><feOffset input="SourceAlpha"/><feGaussianBlur stdDeviation="1.5" result="b"/><feFlood flood-opacity="0.161"/><feComposite operator="in" in2="b"/><feComposite in="SourceGraphic"/></filter></defs><g transform="translate(-84.5 -591.5)"><g class="c" transform="matrix(1, 0, 0, 1, 84.5, 591.5)"><rect class="a" width="46" height="46" rx="23" transform="translate(4.5 4.5)"/></g><path class="b" d="M21.82,1.333H3.61A2.5,2.5,0,0,0,1.345,4.01L1.333,28.1l4.553-5.353H21.82A2.508,2.508,0,0,0,24.1,20.067V4.01A2.508,2.508,0,0,0,21.82,1.333ZM19.543,17.391H5.886V14.715H19.543Zm0-4.014H5.886V10.7H19.543Zm0-4.014H5.886V6.686H19.543V9.362Z" transform="translate(99.402 605.429)"/></g></svg>