<svg xmlns="http://www.w3.org/2000/svg" width="49.448" height="51.31" viewBox="0 0 49.448 51.31"><g transform="translate(4256.448 -421.746)"><rect width="2.22" height="10.15" transform="translate(-4249.185 451.724)"/><path d="M5.788,4.456h2.22L2.22,11.779H0Z" transform="translate(-4232.056 422.181)"/><path d="M5.788,4.456H7.865L2.22,11.779H0Z" transform="translate(-4214.927 430.428)"/><path d="M6.25,0l1.3,1.538L2.22,8.093H0Z" transform="translate(-4256.122 441.947) rotate(-76)"/><path d="M2.474,4.806,0,4.456l5.788,7.324h2.22Z" transform="translate(-4237.322 422.181)"/><path d="M2.22,4.456H0l5.788,7.324h2.22Z" transform="translate(-4215.118 437.407)"/><path d="M2.22,4.456H0l6.449,8.069,1.594-.912Z" transform="translate(-4231.612 446.923)"/><path d="M6,4.456h2.22l-6.06,7.687L.58,11.017Z" transform="translate(-4237.534 446.923)"/><path d="M1.314,0,0,1.688,5.837,9.057l1.719-.744Z" transform="translate(-4255.006 450.579) rotate(-101)"/><path d="M5.206,0h2.22L2.22,19.288H0Z" transform="translate(-4235.004 428.201) rotate(45)"/><path d="M5.245,0,7.414.086,2.22,19.445H0Z" transform="translate(-4239.967 421.746) rotate(45)"/><path d="M5.438,0h2.22L2.22,20.005H0Z" transform="translate(-4218.002 437.21) rotate(45)"/><path d="M5.464,0,7.615.2,2.22,19.874H0Z" transform="translate(-4212.385 443.646) rotate(45)"/><path d="M0,0H2.22L2.014,10.733,0,11.419Z" transform="translate(-4214.293 451.09)"/><rect width="2.22" height="19.032" transform="translate(-4231.422 451.724)"/><path d="M0,0H2.22l2.17,20.752L1.912,21.1Z" transform="matrix(0.53, -0.848, 0.848, 0.53, -4249.191, 461.874)"/><path d="M0,0H2.22l2.17,20.752-2.2-.5Z" transform="translate(-4230.263 471.433) rotate(-112)"/><path d="M0,0H2.22l2.17,20.752H2.17Z" transform="matrix(0.53, -0.848, 0.848, 0.53, -4254.266, 449.821)"/><path d="M0,0H2.22l2.17,20.752-2.355-.24Z" transform="matrix(0.53, -0.848, 0.848, 0.53, -4226.987, 427.617)"/><path d="M0,0H2.22l2.17,20.752H2.17Z" transform="matrix(0.53, -0.848, 0.848, 0.53, -4249.191, 443.477)"/><path d="M0,0H2.22L3.511,19.525H1.291Z" transform="matrix(0.53, -0.848, 0.848, 0.53, -4232.53, 433.777)"/></g></svg>