<svg xmlns="http://www.w3.org/2000/svg" xmlns:xlink="http://www.w3.org/1999/xlink" width="55" height="55" viewBox="0 0 55 55"><defs><style>.a{fill:#4caf50;}.b{fill:#fafafa;}.c{filter:url(#a);}</style><filter id="a" x="0" y="0" width="55" height="55" filterUnits="userSpaceOnUse"><feOffset input="SourceAlpha"/><feGaussianBlur stdDeviation="1.5" result="b"/><feFlood flood-opacity="0.078"/><feComposite operator="in" in2="b"/><feComposite in="SourceGraphic"/></filter></defs><g transform="translate(-158.5 -591.5)"><g class="c" transform="matrix(1, 0, 0, 1, 158.5, 591.5)"><rect class="a" width="46" height="46" rx="23" transform="translate(4.5 4.5)"/></g><g transform="translate(170 603.001)"><path class="a" d="M16,0H16A15.99,15.99,0,0,0,3.046,25.377L1.052,31.321,7.2,29.355A16,16,0,1,0,16,0Z" transform="translate(0 0)"/><path class="b" d="M128.272,134.685c-.436,1.256-2.164,2.3-3.545,2.6-.944.205-2.177.369-6.327-1.388-5.309-2.247-8.728-7.751-8.994-8.109a10.632,10.632,0,0,1-2.145-5.562,5.947,5.947,0,0,1,1.847-4.488,2.592,2.592,0,0,1,1.847-.662c.223,0,.424.012.605.021.531.023.8.055,1.147.91.436,1.072,1.5,3.718,1.624,3.99a1.117,1.117,0,0,1,.077,1,3.188,3.188,0,0,1-.585.846c-.266.313-.519.553-.786.89a.879.879,0,0,0-.212,1.148,16.311,16.311,0,0,0,2.931,3.718,13.238,13.238,0,0,0,4.236,2.667,1.125,1.125,0,0,0,1.274-.205,22.283,22.283,0,0,0,1.411-1.91,1,1,0,0,1,1.3-.4c.488.173,3.069,1.475,3.6,1.745s.88.4,1.009.629A4.663,4.663,0,0,1,128.272,134.685Z" transform="translate(-101.812 -111.134)"/></g></g></svg>