<svg xmlns="http://www.w3.org/2000/svg" xmlns:xlink="http://www.w3.org/1999/xlink" width="55" height="55" viewBox="0 0 55 55"><defs><style>.a{fill:#1778f2;}.b{fill:#fdfdfd;}.c{filter:url(#a);}</style><filter id="a" x="0" y="0" width="55" height="55" filterUnits="userSpaceOnUse"><feOffset input="SourceAlpha"/><feGaussianBlur stdDeviation="1.5" result="b"/><feFlood flood-opacity="0.078"/><feComposite operator="in" in2="b"/><feComposite in="SourceGraphic"/></filter></defs><g transform="translate(-231.5 -591.5)"><g class="c" transform="matrix(1, 0, 0, 1, 231.5, 591.5)"><rect class="a" width="46" height="46" rx="23" transform="translate(4.5 4.5)"/></g><g transform="translate(243 603)"><rect class="a" width="32" height="32" rx="16"/><path class="b" d="M94.51,31.88V23.194h2.763l.414-3.385H94.51V17.647c0-.98.258-1.648,1.59-1.648h1.7V12.972a21.579,21.579,0,0,0-2.475-.133c-2.449,0-4.125,1.577-4.125,4.475v2.495h-2.77v3.385H91.2V31.88Z" transform="translate(-77.422 -6.827)"/></g></g></svg>