<svg xmlns="http://www.w3.org/2000/svg" xmlns:xlink="http://www.w3.org/1999/xlink" width="55" height="55" viewBox="0 0 55 55"><defs><style>.a{fill:#fff;}.b{clip-path:url(#e);}.c{fill:url(#f);}.d{filter:url(#c);}.e{filter:url(#a);}</style><filter id="a" x="0" y="0" width="55" height="55" filterUnits="userSpaceOnUse"><feOffset input="SourceAlpha"/><feGaussianBlur stdDeviation="1.5" result="b"/><feFlood flood-opacity="0.078"/><feComposite operator="in" in2="b"/><feComposite in="SourceGraphic"/></filter><filter id="c" x="0" y="0" width="55" height="55" filterUnits="userSpaceOnUse"><feOffset input="SourceAlpha"/><feGaussianBlur stdDeviation="1.5" result="d"/><feFlood flood-opacity="0.078"/><feComposite operator="in" in2="d"/><feComposite in="SourceGraphic"/></filter><clipPath id="e"><g class="e" transform="matrix(1, 0, 0, 1, 0, 0)"><rect class="a" width="46" height="46" rx="23" transform="translate(0 0)"/></g></clipPath><radialGradient id="f" cx="0.065" cy="0.978" r="1.27" gradientUnits="objectBoundingBox"><stop offset="0.09" stop-color="#fa8f21"/><stop offset="0.78" stop-color="#d82d7e"/></radialGradient></defs><g transform="translate(-883.5 -1598.5)"><g class="d" transform="matrix(1, 0, 0, 1, 883.5, 1598.5)"><rect class="a" width="46" height="46" rx="23" transform="translate(4.5 4.5)"/></g><g class="b" transform="translate(888 1603)"><path class="c" d="M12.364,48.587a16.416,16.416,0,0,1-5.523-1.023,9.24,9.24,0,0,1-3.42-2.224A9.169,9.169,0,0,1,1.2,41.921,16.416,16.416,0,0,1,.174,36.4C.029,33.264,0,32.323,0,24.38S.032,15.5.173,12.362A16.508,16.508,0,0,1,1.2,6.842,9.274,9.274,0,0,1,3.42,3.42,9.181,9.181,0,0,1,6.84,1.2,16.416,16.416,0,0,1,12.363.173C15.5.029,16.441,0,24.38,0S33.26.032,36.4.173A16.509,16.509,0,0,1,41.919,1.2a9.2,9.2,0,0,1,3.42,2.224A9.21,9.21,0,0,1,47.564,6.84a16.416,16.416,0,0,1,1.023,5.523c.143,3.137.173,4.077.173,12.018s-.029,8.88-.173,12.018a16.492,16.492,0,0,1-1.023,5.522,9.848,9.848,0,0,1-5.645,5.644A16.417,16.417,0,0,1,36.4,48.587c-3.134.143-4.077.173-12.018.173s-8.88-.028-12.015-.173" transform="translate(-1.506 -0.92)"/></g><path class="a" d="M443.6,451.139a3.872,3.872,0,1,1,3.872,3.873,3.872,3.872,0,0,1-3.872-3.873m-2.094,0a5.966,5.966,0,1,0,5.966-5.966,5.966,5.966,0,0,0-5.966,5.966m10.773-6.2a1.394,1.394,0,1,0,1.395-1.393h0a1.4,1.4,0,0,0-1.394,1.393m-9.5,15.659a6.421,6.421,0,0,1-2.157-.4,3.847,3.847,0,0,1-2.205-2.2,6.416,6.416,0,0,1-.4-2.157c-.056-1.225-.067-1.592-.067-4.695s.012-3.469.067-4.7a6.466,6.466,0,0,1,.4-2.157,3.845,3.845,0,0,1,2.205-2.205,6.416,6.416,0,0,1,2.157-.4c1.225-.056,1.592-.068,4.694-.068s3.469.012,4.7.068a6.462,6.462,0,0,1,2.158.4,3.845,3.845,0,0,1,2.205,2.205,6.416,6.416,0,0,1,.4,2.157c.056,1.226.067,1.592.067,4.7s-.011,3.469-.067,4.7a6.445,6.445,0,0,1-.4,2.157,3.847,3.847,0,0,1-2.205,2.2,6.416,6.416,0,0,1-2.157.4c-1.224.056-1.592.067-4.7.067s-3.469-.011-4.694-.067m-.1-21a8.518,8.518,0,0,0-2.821.54,5.94,5.94,0,0,0-3.4,3.4,8.522,8.522,0,0,0-.54,2.821c-.057,1.239-.07,1.635-.07,4.79s.013,3.551.07,4.79a8.521,8.521,0,0,0,.54,2.821,5.94,5.94,0,0,0,3.4,3.4,8.528,8.528,0,0,0,2.821.54c1.239.056,1.635.07,4.79.07s3.551-.013,4.79-.07a8.522,8.522,0,0,0,2.821-.54,5.94,5.94,0,0,0,3.4-3.4,8.5,8.5,0,0,0,.54-2.821c.056-1.24.069-1.635.069-4.79s-.013-3.551-.069-4.79a8.519,8.519,0,0,0-.54-2.821,5.941,5.941,0,0,0-3.4-3.4,8.505,8.505,0,0,0-2.821-.54c-1.239-.057-1.635-.07-4.789-.07s-3.551.013-4.791.07" transform="translate(463.637 1174.964)"/></g></svg>